<mxfile host="app.diagrams.net" modified="2021-02-14T23:49:57.827Z" agent="5.0 (Macintosh; Intel Mac OS X 10_15_7) AppleWebKit/537.36 (KHTML, like Gecko) Chrome/88.0.4324.150 Safari/537.36" etag="259hB8esWoLgAd7kCspk" version="14.3.1" type="github" pages="2">
  <diagram name="Page-1" id="9f46799a-70d6-7492-0946-bef42562c5a5">
    <mxGraphModel dx="881" dy="1507" grid="1" gridSize="10" guides="1" tooltips="1" connect="1" arrows="1" fold="1" page="1" pageScale="1" pageWidth="1100" pageHeight="850" background="#ffffff" math="0" shadow="0">
      <root>
        <mxCell id="0" />
        <mxCell id="1" parent="0" />
        <mxCell id="d0X5vv4FZnqWqpfljy17-48" style="edgeStyle=orthogonalEdgeStyle;rounded=0;orthogonalLoop=1;jettySize=auto;html=1;startArrow=oval;startFill=1;endArrow=openThin;endFill=0;" edge="1" parent="1">
          <mxGeometry relative="1" as="geometry">
            <mxPoint x="440" y="170" as="targetPoint" />
            <mxPoint x="390" y="120" as="sourcePoint" />
          </mxGeometry>
        </mxCell>
        <mxCell id="d0X5vv4FZnqWqpfljy17-43" value="" style="shape=requiredInterface;html=1;verticalLabelPosition=bottom;" vertex="1" parent="1">
          <mxGeometry x="240" y="39" width="10" height="20" as="geometry" />
        </mxCell>
        <mxCell id="d0X5vv4FZnqWqpfljy17-45" value="" style="shape=requiredInterface;html=1;verticalLabelPosition=bottom;" vertex="1" parent="1">
          <mxGeometry x="176" y="109" width="10" height="20" as="geometry" />
        </mxCell>
        <mxCell id="d0X5vv4FZnqWqpfljy17-46" value="" style="shape=datastore;whiteSpace=wrap;html=1;" vertex="1" parent="1">
          <mxGeometry x="81" y="-20" width="30" height="30" as="geometry" />
        </mxCell>
        <mxCell id="d0X5vv4FZnqWqpfljy17-69" style="edgeStyle=orthogonalEdgeStyle;rounded=0;orthogonalLoop=1;jettySize=auto;html=1;entryX=0;entryY=0.5;entryDx=0;entryDy=0;startArrow=oval;startFill=1;endArrow=openThin;endFill=0;" edge="1" parent="1" source="d0X5vv4FZnqWqpfljy17-52" target="d0X5vv4FZnqWqpfljy17-67">
          <mxGeometry relative="1" as="geometry" />
        </mxCell>
        <object label="&lt;p style=&quot;margin: 0px ; margin-top: 6px ; text-align: center&quot;&gt;&lt;b&gt;Buildings&lt;/b&gt;&lt;/p&gt;&lt;hr&gt;&lt;p style=&quot;margin: 0px ; margin-left: 8px&quot;&gt;+&amp;nbsp; Source: ADENE&lt;br&gt;+ Granularity: per building&lt;/p&gt;&lt;p style=&quot;margin: 0px ; margin-left: 8px&quot;&gt;+ call: bulk download&lt;/p&gt;" xpto="aaa&#xa;sssss" placeholders="1" ssss="" id="d0X5vv4FZnqWqpfljy17-52">
          <mxCell style="align=left;overflow=fill;html=1;dropTarget=0;" vertex="1" parent="1">
            <mxGeometry x="6" y="39" width="180" height="90" as="geometry" />
          </mxCell>
        </object>
        <mxCell id="d0X5vv4FZnqWqpfljy17-53" value="" style="shape=component;jettyWidth=8;jettyHeight=4;fillColor=#e51400;strokeColor=#B20000;fontColor=#ffffff;" vertex="1" parent="d0X5vv4FZnqWqpfljy17-52">
          <mxGeometry x="1" width="20" height="20" relative="1" as="geometry">
            <mxPoint x="-24" y="4" as="offset" />
          </mxGeometry>
        </mxCell>
        <mxCell id="d0X5vv4FZnqWqpfljy17-70" style="edgeStyle=orthogonalEdgeStyle;rounded=0;orthogonalLoop=1;jettySize=auto;html=1;startArrow=oval;startFill=1;endArrow=openThin;endFill=0;entryX=-0.011;entryY=0.667;entryDx=0;entryDy=0;entryPerimeter=0;" edge="1" parent="1" source="d0X5vv4FZnqWqpfljy17-58" target="d0X5vv4FZnqWqpfljy17-67">
          <mxGeometry relative="1" as="geometry">
            <mxPoint x="260" y="150" as="targetPoint" />
            <Array as="points">
              <mxPoint x="228" y="185" />
              <mxPoint x="228" y="190" />
            </Array>
          </mxGeometry>
        </mxCell>
        <object label="&lt;p style=&quot;margin: 0px ; margin-top: 6px ; text-align: center&quot;&gt;&lt;b&gt;Weather&lt;/b&gt;&lt;/p&gt;&lt;hr&gt;&lt;p style=&quot;margin: 0px ; margin-left: 8px&quot;&gt;+&amp;nbsp; Source: MARETEC API&lt;br&gt;+ Granularity: 1 hour/14 days forecast&lt;/p&gt;&lt;p style=&quot;margin: 0px ; margin-left: 8px&quot;&gt;+calls: everyday per point/location&lt;/p&gt;" xpto="aaa&#xa;sssss" placeholders="1" ssss="" id="d0X5vv4FZnqWqpfljy17-58">
          <mxCell style="align=left;overflow=fill;html=1;dropTarget=0;" vertex="1" parent="1">
            <mxGeometry x="6" y="140" width="180" height="90" as="geometry" />
          </mxCell>
        </object>
        <mxCell id="d0X5vv4FZnqWqpfljy17-59" value="" style="shape=component;jettyWidth=8;jettyHeight=4;fillColor=#008a00;strokeColor=#005700;fontColor=#ffffff;" vertex="1" parent="d0X5vv4FZnqWqpfljy17-58">
          <mxGeometry x="1" width="20" height="20" relative="1" as="geometry">
            <mxPoint x="-24" y="4" as="offset" />
          </mxGeometry>
        </mxCell>
        <mxCell id="d0X5vv4FZnqWqpfljy17-78" style="edgeStyle=orthogonalEdgeStyle;rounded=0;orthogonalLoop=1;jettySize=auto;html=1;entryX=-0.004;entryY=0.589;entryDx=0;entryDy=0;entryPerimeter=0;startArrow=oval;startFill=1;endArrow=openThin;endFill=0;" edge="1" parent="1" source="d0X5vv4FZnqWqpfljy17-60" target="d0X5vv4FZnqWqpfljy17-71">
          <mxGeometry relative="1" as="geometry" />
        </mxCell>
        <mxCell id="d0X5vv4FZnqWqpfljy17-120" value="" style="edgeStyle=orthogonalEdgeStyle;rounded=0;orthogonalLoop=1;jettySize=auto;html=1;startArrow=oval;startFill=1;endArrow=openThin;endFill=0;" edge="1" parent="1" source="d0X5vv4FZnqWqpfljy17-60" target="d0X5vv4FZnqWqpfljy17-71">
          <mxGeometry relative="1" as="geometry" />
        </mxCell>
        <object label="&lt;p style=&quot;margin: 0px ; margin-top: 6px ; text-align: center&quot;&gt;&lt;b&gt;Demographics&lt;/b&gt;&lt;/p&gt;&lt;hr&gt;&lt;p style=&quot;margin: 0px ; margin-left: 8px&quot;&gt;+&amp;nbsp; Source: CENSUS 2011&lt;br&gt;+ Granularity: BGRI&lt;/p&gt;&lt;p style=&quot;margin: 0px ; margin-left: 8px&quot;&gt;+ call: bulk download&lt;/p&gt;" xpto="aaa&#xa;sssss" placeholders="1" ssss="" id="d0X5vv4FZnqWqpfljy17-60">
          <mxCell style="align=left;overflow=fill;html=1;dropTarget=0;" vertex="1" parent="1">
            <mxGeometry x="6" y="246" width="180" height="90" as="geometry" />
          </mxCell>
        </object>
        <mxCell id="d0X5vv4FZnqWqpfljy17-61" value="" style="shape=component;jettyWidth=8;jettyHeight=4;fillColor=#1ba1e2;strokeColor=#006EAF;fontColor=#ffffff;" vertex="1" parent="d0X5vv4FZnqWqpfljy17-60">
          <mxGeometry x="1" width="20" height="20" relative="1" as="geometry">
            <mxPoint x="-24" y="4" as="offset" />
          </mxGeometry>
        </mxCell>
        <mxCell id="d0X5vv4FZnqWqpfljy17-80" style="edgeStyle=orthogonalEdgeStyle;rounded=0;orthogonalLoop=1;jettySize=auto;html=1;startArrow=oval;startFill=1;endArrow=openThin;endFill=0;" edge="1" parent="1" source="d0X5vv4FZnqWqpfljy17-62">
          <mxGeometry relative="1" as="geometry">
            <mxPoint x="260" y="515" as="targetPoint" />
          </mxGeometry>
        </mxCell>
        <object label="&lt;p style=&quot;margin: 0px ; margin-top: 6px ; text-align: center&quot;&gt;&lt;b&gt;Land Cover&lt;/b&gt;&lt;/p&gt;&lt;hr&gt;&lt;p style=&quot;margin: 0px ; margin-left: 8px&quot;&gt;+&amp;nbsp; Source: ESA/Mobility&lt;br&gt;+ Granularity: BGRI&lt;/p&gt;&lt;p style=&quot;margin: 0px ; margin-left: 8px&quot;&gt;+ call: bulk download&lt;/p&gt;" xpto="aaa&#xa;sssss" placeholders="1" ssss="" id="d0X5vv4FZnqWqpfljy17-62">
          <mxCell style="align=left;overflow=fill;html=1;dropTarget=0;" vertex="1" parent="1">
            <mxGeometry x="6" y="470" width="180" height="90" as="geometry" />
          </mxCell>
        </object>
        <mxCell id="d0X5vv4FZnqWqpfljy17-63" value="" style="shape=component;jettyWidth=8;jettyHeight=4;fillColor=#0050ef;strokeColor=#001DBC;fontColor=#ffffff;" vertex="1" parent="d0X5vv4FZnqWqpfljy17-62">
          <mxGeometry x="1" width="20" height="20" relative="1" as="geometry">
            <mxPoint x="-24" y="4" as="offset" />
          </mxGeometry>
        </mxCell>
        <mxCell id="d0X5vv4FZnqWqpfljy17-79" style="edgeStyle=orthogonalEdgeStyle;rounded=0;orthogonalLoop=1;jettySize=auto;html=1;startArrow=oval;startFill=1;endArrow=openThin;endFill=0;entryX=0;entryY=0.75;entryDx=0;entryDy=0;" edge="1" parent="1" source="d0X5vv4FZnqWqpfljy17-64" target="d0X5vv4FZnqWqpfljy17-71">
          <mxGeometry relative="1" as="geometry">
            <mxPoint x="260" y="370" as="targetPoint" />
          </mxGeometry>
        </mxCell>
        <object label="&lt;p style=&quot;margin: 0px ; margin-top: 6px ; text-align: center&quot;&gt;&lt;b&gt;Healthcare&lt;/b&gt;&lt;/p&gt;&lt;hr&gt;&lt;p style=&quot;margin: 0px ; margin-left: 8px&quot;&gt;+&amp;nbsp; Source: DGS/IVM&lt;br&gt;+ Granularity: daily&lt;/p&gt;&lt;p style=&quot;margin: 0px ; margin-left: 8px&quot;&gt;+ call: bulk download (historical)&lt;/p&gt;" xpto="aaa&#xa;sssss" placeholders="1" ssss="" id="d0X5vv4FZnqWqpfljy17-64">
          <mxCell style="align=left;overflow=fill;html=1;dropTarget=0;" vertex="1" parent="1">
            <mxGeometry x="6" y="360" width="180" height="90" as="geometry" />
          </mxCell>
        </object>
        <mxCell id="d0X5vv4FZnqWqpfljy17-65" value="" style="shape=component;jettyWidth=8;jettyHeight=4;fillColor=#e3c800;strokeColor=#B09500;fontColor=#ffffff;" vertex="1" parent="d0X5vv4FZnqWqpfljy17-64">
          <mxGeometry x="1" width="20" height="20" relative="1" as="geometry">
            <mxPoint x="-24" y="4" as="offset" />
          </mxGeometry>
        </mxCell>
        <mxCell id="d0X5vv4FZnqWqpfljy17-83" style="edgeStyle=orthogonalEdgeStyle;rounded=0;orthogonalLoop=1;jettySize=auto;html=1;entryX=0;entryY=0.5;entryDx=0;entryDy=0;startArrow=oval;startFill=1;endArrow=openThin;endFill=0;" edge="1" parent="1" source="d0X5vv4FZnqWqpfljy17-67" target="d0X5vv4FZnqWqpfljy17-82">
          <mxGeometry relative="1" as="geometry" />
        </mxCell>
        <object label="&lt;p style=&quot;margin: 0px ; margin-top: 6px ; text-align: center&quot;&gt;&lt;b&gt;Thermal Comfort&lt;/b&gt;&lt;/p&gt;&lt;hr&gt;&lt;p style=&quot;margin: 0px ; margin-left: 8px&quot;&gt;+&amp;nbsp; Input: Buildings+weather&lt;/p&gt;&lt;p style=&quot;margin: 0px ; margin-left: 8px&quot;&gt;+ process: energy+&lt;br&gt;+ output: thermal comfort&amp;nbsp;&amp;nbsp;&lt;/p&gt;&lt;p style=&quot;margin: 0px ; margin-left: 8px&quot;&gt;(archetypes) per location for the next 14 days&lt;/p&gt;&lt;p style=&quot;margin: 0px ; margin-left: 8px&quot;&gt;+ export format: csv, json&lt;/p&gt;&lt;p style=&quot;margin: 0px ; margin-left: 8px&quot;&gt;+updates: daily&amp;nbsp;&lt;/p&gt;&lt;p style=&quot;margin: 0px ; margin-left: 8px&quot;&gt;+ send/store:&amp;nbsp;&lt;/p&gt;" xpto="aaa&#xa;sssss" placeholders="1" ssss="" id="d0X5vv4FZnqWqpfljy17-67">
          <mxCell style="align=left;overflow=fill;html=1;dropTarget=0;" vertex="1" parent="1">
            <mxGeometry x="270" y="90" width="240" height="150" as="geometry" />
          </mxCell>
        </object>
        <mxCell id="d0X5vv4FZnqWqpfljy17-68" value="" style="shape=component;jettyWidth=8;jettyHeight=4;fillColor=#1ba1e2;strokeColor=#006EAF;fontColor=#ffffff;" vertex="1" parent="d0X5vv4FZnqWqpfljy17-67">
          <mxGeometry x="1" width="20" height="20" relative="1" as="geometry">
            <mxPoint x="-24" y="4" as="offset" />
          </mxGeometry>
        </mxCell>
        <mxCell id="d0X5vv4FZnqWqpfljy17-84" style="edgeStyle=orthogonalEdgeStyle;rounded=0;orthogonalLoop=1;jettySize=auto;html=1;startArrow=oval;startFill=1;endArrow=openThin;endFill=0;" edge="1" parent="1" source="d0X5vv4FZnqWqpfljy17-71">
          <mxGeometry relative="1" as="geometry">
            <mxPoint x="580" y="345" as="targetPoint" />
          </mxGeometry>
        </mxCell>
        <object label="&lt;p style=&quot;margin: 0px ; margin-top: 6px ; text-align: center&quot;&gt;&lt;b&gt;Updated demographics per BRGI&lt;/b&gt;&lt;/p&gt;&lt;hr&gt;&lt;p style=&quot;margin: 0px ; margin-left: 8px&quot;&gt;+&amp;nbsp; Input: INE CENSUS + other&lt;/p&gt;&lt;p style=&quot;margin: 0px ; margin-left: 8px&quot;&gt;+&amp;nbsp;process: regression, etc.&lt;br&gt;+ output: updated demographics&amp;nbsp;&lt;/p&gt;&lt;p style=&quot;margin: 0px ; margin-left: 8px&quot;&gt;&lt;span&gt;+ export format: csv, json, etc&lt;/span&gt;&lt;br&gt;&lt;/p&gt;&lt;p style=&quot;margin: 0px ; margin-left: 8px&quot;&gt;+ send/store:&amp;nbsp;&lt;/p&gt;" xpto="aaa&#xa;sssss" placeholders="1" ssss="" id="d0X5vv4FZnqWqpfljy17-71">
          <mxCell style="align=left;overflow=fill;html=1;dropTarget=0;" vertex="1" parent="1">
            <mxGeometry x="270" y="300" width="240" height="90" as="geometry" />
          </mxCell>
        </object>
        <mxCell id="d0X5vv4FZnqWqpfljy17-72" value="" style="shape=component;jettyWidth=8;jettyHeight=4;fillColor=#1ba1e2;strokeColor=#006EAF;fontColor=#ffffff;" vertex="1" parent="d0X5vv4FZnqWqpfljy17-71">
          <mxGeometry x="1" width="20" height="20" relative="1" as="geometry">
            <mxPoint x="-24" y="4" as="offset" />
          </mxGeometry>
        </mxCell>
        <mxCell id="d0X5vv4FZnqWqpfljy17-85" style="edgeStyle=orthogonalEdgeStyle;rounded=0;orthogonalLoop=1;jettySize=auto;html=1;entryX=0.006;entryY=0.6;entryDx=0;entryDy=0;entryPerimeter=0;startArrow=oval;startFill=1;endArrow=openThin;endFill=0;" edge="1" parent="1" source="d0X5vv4FZnqWqpfljy17-76" target="d0X5vv4FZnqWqpfljy17-82">
          <mxGeometry relative="1" as="geometry" />
        </mxCell>
        <object label="&lt;p style=&quot;margin: 0px ; margin-top: 6px ; text-align: center&quot;&gt;&lt;b&gt;Updated land per BRGI&lt;/b&gt;&lt;/p&gt;&lt;hr&gt;&lt;p style=&quot;margin: 0px ; margin-left: 8px&quot;&gt;+&amp;nbsp; Input: image, mobility networks&lt;/p&gt;&lt;p style=&quot;margin: 0px ; margin-left: 8px&quot;&gt;+&amp;nbsp;process: Image classification, regression&lt;br&gt;+ output: updated demographics&amp;nbsp;&lt;/p&gt;&lt;p style=&quot;margin: 0px ; margin-left: 8px&quot;&gt;&lt;span&gt;+ export format: pixeis, matrices (arrays..)&lt;/span&gt;&lt;br&gt;&lt;/p&gt;&lt;p style=&quot;margin: 0px ; margin-left: 8px&quot;&gt;+ send/store:&amp;nbsp;&lt;/p&gt;" xpto="aaa&#xa;sssss" placeholders="1" ssss="" id="d0X5vv4FZnqWqpfljy17-76">
          <mxCell style="align=left;overflow=fill;html=1;dropTarget=0;" vertex="1" parent="1">
            <mxGeometry x="270" y="460" width="240" height="110" as="geometry" />
          </mxCell>
        </object>
        <mxCell id="d0X5vv4FZnqWqpfljy17-77" value="" style="shape=component;jettyWidth=8;jettyHeight=4;fillColor=#0050ef;strokeColor=#001DBC;fontColor=#ffffff;" vertex="1" parent="d0X5vv4FZnqWqpfljy17-76">
          <mxGeometry x="1" width="20" height="20" relative="1" as="geometry">
            <mxPoint x="-24" y="4" as="offset" />
          </mxGeometry>
        </mxCell>
        <mxCell id="d0X5vv4FZnqWqpfljy17-94" style="edgeStyle=orthogonalEdgeStyle;rounded=0;orthogonalLoop=1;jettySize=auto;html=1;startArrow=oval;startFill=1;endArrow=openThin;endFill=0;" edge="1" parent="1" source="d0X5vv4FZnqWqpfljy17-82">
          <mxGeometry relative="1" as="geometry">
            <mxPoint x="840" y="335" as="targetPoint" />
          </mxGeometry>
        </mxCell>
        <mxCell id="d0X5vv4FZnqWqpfljy17-82" value="&lt;p style=&quot;margin: 0px ; margin-top: 4px ; text-align: center&quot;&gt;&lt;b&gt;Composite Index&lt;/b&gt;&lt;/p&gt;&lt;hr size=&quot;1&quot;&gt;&lt;p style=&quot;margin: 0px ; margin-left: 4px&quot;&gt;+ field: risk matrix per day and location&lt;/p&gt;&lt;hr size=&quot;1&quot;&gt;&lt;p style=&quot;margin: 0px ; margin-left: 4px&quot;&gt;+ method(): PCA, etc&lt;/p&gt;" style="verticalAlign=top;align=left;overflow=fill;fontSize=12;fontFamily=Helvetica;html=1;rounded=0;shadow=0;labelBackgroundColor=none;sketch=0;" vertex="1" parent="1">
          <mxGeometry x="600" y="290" width="160" height="90" as="geometry" />
        </mxCell>
        <mxCell id="d0X5vv4FZnqWqpfljy17-93" value="&lt;p style=&quot;margin: 0px ; margin-top: 4px ; text-align: center&quot;&gt;&lt;i&gt;&amp;lt;&amp;lt;Interface&amp;gt;&amp;gt;&lt;/i&gt;&lt;br&gt;&lt;b&gt;Interface&lt;/b&gt;&lt;/p&gt;&lt;hr size=&quot;1&quot;&gt;&lt;p style=&quot;margin: 0px ; margin-left: 4px&quot;&gt;+ field1: callbacks per location, day&lt;br&gt;+ field2: Type&lt;/p&gt;&lt;hr size=&quot;1&quot;&gt;&lt;p style=&quot;margin: 0px ; margin-left: 4px&quot;&gt;+ method1: Data Viz (map)&lt;br&gt;+ method2: API&lt;/p&gt;&lt;p style=&quot;margin: 0px ; margin-left: 4px&quot;&gt;&lt;br&gt;&lt;/p&gt;" style="verticalAlign=top;align=left;overflow=fill;fontSize=12;fontFamily=Helvetica;html=1;rounded=0;shadow=0;labelBackgroundColor=none;sketch=0;" vertex="1" parent="1">
          <mxGeometry x="850" y="275" width="190" height="140" as="geometry" />
        </mxCell>
        <mxCell id="d0X5vv4FZnqWqpfljy17-95" value="" style="shape=requiredInterface;html=1;verticalLabelPosition=bottom;" vertex="1" parent="1">
          <mxGeometry x="545" y="109" width="10" height="20" as="geometry" />
        </mxCell>
        <mxCell id="d0X5vv4FZnqWqpfljy17-96" value="" style="shape=requiredInterface;html=1;verticalLabelPosition=bottom;" vertex="1" parent="1">
          <mxGeometry x="800" y="290" width="10" height="20" as="geometry" />
        </mxCell>
        <mxCell id="d0X5vv4FZnqWqpfljy17-103" value="&lt;font style=&quot;font-size: 29px&quot;&gt;RELIABLE&lt;/font&gt;" style="text;html=1;resizable=0;autosize=1;align=center;verticalAlign=middle;points=[];fillColor=none;strokeColor=none;rounded=0;shadow=0;labelBackgroundColor=none;sketch=0;" vertex="1" parent="1">
          <mxGeometry x="21" y="-180" width="150" height="20" as="geometry" />
        </mxCell>
        <mxCell id="d0X5vv4FZnqWqpfljy17-104" value="" style="shape=component;jettyWidth=8;jettyHeight=4;fillColor=#e51400;strokeColor=#B20000;fontColor=#ffffff;" vertex="1" parent="1">
          <mxGeometry x="40" y="600" width="20" height="20" as="geometry" />
        </mxCell>
        <mxCell id="d0X5vv4FZnqWqpfljy17-105" value="ADENE" style="text;html=1;resizable=0;autosize=1;align=center;verticalAlign=middle;points=[];fillColor=none;strokeColor=none;rounded=0;shadow=0;labelBackgroundColor=none;sketch=0;" vertex="1" parent="1">
          <mxGeometry x="76" y="600" width="60" height="20" as="geometry" />
        </mxCell>
        <mxCell id="d0X5vv4FZnqWqpfljy17-106" value="" style="shape=component;jettyWidth=8;jettyHeight=4;fillColor=#008a00;strokeColor=#005700;fontColor=#ffffff;" vertex="1" parent="1">
          <mxGeometry x="40" y="630" width="20" height="20" as="geometry" />
        </mxCell>
        <mxCell id="d0X5vv4FZnqWqpfljy17-108" value="MARETEC" style="text;html=1;resizable=0;autosize=1;align=center;verticalAlign=middle;points=[];fillColor=none;strokeColor=none;rounded=0;shadow=0;labelBackgroundColor=none;sketch=0;" vertex="1" parent="1">
          <mxGeometry x="75" y="630" width="70" height="20" as="geometry" />
        </mxCell>
        <mxCell id="d0X5vv4FZnqWqpfljy17-109" value="" style="shape=component;jettyWidth=8;jettyHeight=4;fillColor=#1ba1e2;strokeColor=#006EAF;fontColor=#ffffff;" vertex="1" parent="1">
          <mxGeometry x="40" y="660" width="20" height="20" as="geometry" />
        </mxCell>
        <mxCell id="d0X5vv4FZnqWqpfljy17-110" value="IN+" style="text;html=1;resizable=0;autosize=1;align=center;verticalAlign=middle;points=[];fillColor=none;strokeColor=none;rounded=0;shadow=0;labelBackgroundColor=none;sketch=0;" vertex="1" parent="1">
          <mxGeometry x="90" y="660" width="30" height="20" as="geometry" />
        </mxCell>
        <mxCell id="d0X5vv4FZnqWqpfljy17-111" value="" style="shape=component;jettyWidth=8;jettyHeight=4;fillColor=#0050ef;strokeColor=#001DBC;fontColor=#ffffff;" vertex="1" parent="1">
          <mxGeometry x="40" y="690" width="20" height="20" as="geometry" />
        </mxCell>
        <mxCell id="d0X5vv4FZnqWqpfljy17-112" value="ISR" style="text;html=1;resizable=0;autosize=1;align=center;verticalAlign=middle;points=[];fillColor=none;strokeColor=none;rounded=0;shadow=0;labelBackgroundColor=none;sketch=0;" vertex="1" parent="1">
          <mxGeometry x="85" y="690" width="40" height="20" as="geometry" />
        </mxCell>
        <mxCell id="d0X5vv4FZnqWqpfljy17-113" value="" style="shape=component;jettyWidth=8;jettyHeight=4;fillColor=#e3c800;strokeColor=#B09500;fontColor=#ffffff;" vertex="1" parent="1">
          <mxGeometry x="40" y="720" width="20" height="20" as="geometry" />
        </mxCell>
        <mxCell id="d0X5vv4FZnqWqpfljy17-114" value="INSA" style="text;html=1;resizable=0;autosize=1;align=center;verticalAlign=middle;points=[];fillColor=none;strokeColor=none;rounded=0;shadow=0;labelBackgroundColor=none;sketch=0;" vertex="1" parent="1">
          <mxGeometry x="81" y="720" width="40" height="20" as="geometry" />
        </mxCell>
        <mxCell id="d0X5vv4FZnqWqpfljy17-115" value="" style="shape=component;jettyWidth=8;jettyHeight=4;fillColor=#fa6800;strokeColor=#C73500;fontColor=#ffffff;" vertex="1" parent="1">
          <mxGeometry x="40" y="750" width="20" height="20" as="geometry" />
        </mxCell>
        <mxCell id="d0X5vv4FZnqWqpfljy17-116" value="DGS" style="text;html=1;resizable=0;autosize=1;align=center;verticalAlign=middle;points=[];fillColor=none;strokeColor=none;rounded=0;shadow=0;labelBackgroundColor=none;sketch=0;" vertex="1" parent="1">
          <mxGeometry x="81" y="740" width="40" height="20" as="geometry" />
        </mxCell>
        <mxCell id="d0X5vv4FZnqWqpfljy17-117" value="" style="shape=component;jettyWidth=8;jettyHeight=4;strokeColor=#432D57;fontColor=#ffffff;fillColor=#FF33FF;" vertex="1" parent="1">
          <mxGeometry x="40" y="780" width="20" height="20" as="geometry" />
        </mxCell>
        <mxCell id="d0X5vv4FZnqWqpfljy17-118" value="ITI" style="text;html=1;resizable=0;autosize=1;align=center;verticalAlign=middle;points=[];fillColor=none;strokeColor=none;rounded=0;shadow=0;labelBackgroundColor=none;sketch=0;" vertex="1" parent="1">
          <mxGeometry x="85" y="780" width="30" height="20" as="geometry" />
        </mxCell>
        <mxCell id="d0X5vv4FZnqWqpfljy17-119" value="" style="shape=component;jettyWidth=8;jettyHeight=4;strokeColor=#432D57;fontColor=#ffffff;fillColor=#FF33FF;" vertex="1" parent="1">
          <mxGeometry x="1014" y="280" width="20" height="20" as="geometry" />
        </mxCell>
        <mxCell id="d0X5vv4FZnqWqpfljy17-128" value="" style="shape=component;jettyWidth=8;jettyHeight=4;fillColor=#0050ef;strokeColor=#001DBC;fontColor=#ffffff;" vertex="1" parent="1">
          <mxGeometry x="510" y="303" width="20" height="20" as="geometry" />
        </mxCell>
        <mxCell id="d0X5vv4FZnqWqpfljy17-129" value="" style="shape=component;jettyWidth=8;jettyHeight=4;fillColor=#e3c800;strokeColor=#B09500;fontColor=#ffffff;" vertex="1" parent="1">
          <mxGeometry x="740" y="290" width="20" height="20" as="geometry" />
        </mxCell>
        <mxCell id="d0X5vv4FZnqWqpfljy17-130" value="" style="shape=component;jettyWidth=8;jettyHeight=4;fillColor=#1ba1e2;strokeColor=#006EAF;fontColor=#ffffff;" vertex="1" parent="1">
          <mxGeometry x="768" y="290" width="20" height="20" as="geometry" />
        </mxCell>
      </root>
    </mxGraphModel>
  </diagram>
  <diagram id="S7wXc3fac6BgrwscUM9j" name="Page-2">
    <mxGraphModel dx="881" dy="623" grid="1" gridSize="10" guides="1" tooltips="1" connect="1" arrows="1" fold="1" page="1" pageScale="1" pageWidth="827" pageHeight="1169" math="0" shadow="0">
      <root>
        <mxCell id="jE3i31calAUJvLJS_hG7-0" />
        <mxCell id="jE3i31calAUJvLJS_hG7-1" parent="jE3i31calAUJvLJS_hG7-0" />
      </root>
    </mxGraphModel>
  </diagram>
</mxfile>
